# Blender 4.2.3 LTS
# www.blender.org
mtllib player_template_big_tail_1.mtl
o tail_fox_big
v 0.036466 0.395926 -0.187685
v 0.048304 0.366628 -0.180750
v 0.034188 0.338154 -0.170622
v -0.022050 0.338496 -0.167676
v -0.033730 0.362691 -0.178969
v -0.023088 0.395926 -0.183865
v 0.006473 0.407821 -0.189129
v 0.008911 0.332542 -0.166802
v 0.040101 0.374182 -0.231763
v 0.055642 0.337738 -0.206994
v 0.037950 0.315387 -0.189519
v -0.025005 0.315278 -0.188657
v -0.041636 0.334433 -0.203604
v -0.030489 0.370104 -0.226018
v 0.009565 0.386654 -0.235510
v 0.007803 0.309247 -0.183698
v 0.032310 0.403657 -0.159685
v 0.042416 0.380022 -0.156790
v 0.030047 0.356155 -0.152480
v -0.014937 0.356387 -0.149567
v -0.025042 0.380022 -0.152463
v -0.015390 0.403657 -0.156625
v 0.008367 0.413448 -0.159616
v 0.009427 0.348668 -0.149981
v 0.043922 0.341415 -0.273394
v 0.064403 0.310665 -0.237154
v 0.047532 0.281378 -0.208205
v -0.031315 0.281378 -0.203147
v -0.049432 0.309312 -0.229976
v -0.035599 0.334343 -0.269926
v 0.006719 0.349994 -0.279024
v 0.008697 0.272990 -0.196505
v 0.055127 0.298889 -0.306631
v 0.074074 0.262811 -0.269950
v 0.060972 0.231719 -0.224709
v -0.036807 0.231719 -0.215498
v -0.061888 0.268748 -0.269378
v -0.038613 0.301281 -0.301791
v 0.008924 0.312352 -0.319158
v 0.014104 0.219995 -0.209234
v 0.073084 0.227825 -0.332229
v 0.096405 0.189880 -0.285588
v 0.077789 0.156098 -0.256592
v -0.048310 0.140944 -0.241364
v -0.077859 0.191805 -0.280479
v -0.049669 0.249634 -0.329567
v 0.009593 0.265569 -0.345682
v 0.013050 0.141299 -0.242560
v 0.080590 0.196267 -0.378177
v 0.117705 0.150697 -0.340240
v 0.087756 0.072719 -0.300442
v -0.069999 0.072719 -0.290323
v -0.098227 0.152893 -0.333419
v -0.057655 0.211552 -0.365308
v 0.011624 0.223020 -0.387503
v 0.009698 0.050556 -0.282600
v 0.098532 0.173760 -0.442596
v 0.137876 0.091905 -0.457241
v 0.091057 0.020094 -0.429624
v -0.082464 0.020094 -0.418492
v -0.115792 0.096499 -0.455455
v -0.070479 0.180819 -0.431313
v 0.014754 0.210966 -0.434176
v 0.004795 -0.007021 -0.416294
v 0.098879 0.207354 -0.527771
v 0.137532 0.138819 -0.561519
v 0.099577 0.061003 -0.610161
v -0.073347 0.061003 -0.599068
v -0.117243 0.135483 -0.575868
v -0.069282 0.207354 -0.521278
v 0.017168 0.234181 -0.513157
v 0.012336 0.035851 -0.616760
v 0.094607 0.258010 -0.599755
v 0.126444 0.203414 -0.640648
v 0.086915 0.147154 -0.698349
v -0.072057 0.147154 -0.688151
v -0.099690 0.203414 -0.638289
v -0.067089 0.258010 -0.589383
v 0.013632 0.271269 -0.580416
v 0.006392 0.127288 -0.709423
v 0.073451 0.303060 -0.640325
v 0.102991 0.268594 -0.681523
v 0.065164 0.234859 -0.730553
v -0.054599 0.234859 -0.722870
v -0.076761 0.268594 -0.680095
v -0.049082 0.302385 -0.636872
v 0.012027 0.318199 -0.621578
v 0.004385 0.222180 -0.740699
v 0.053411 0.349003 -0.662348
v 0.069241 0.331349 -0.699685
v 0.048604 0.310863 -0.737278
v -0.039034 0.310863 -0.731656
v -0.054698 0.331349 -0.691735
v -0.034227 0.349003 -0.656727
v 0.010636 0.357040 -0.643256
v 0.004022 0.303858 -0.746368
v 0.034249 0.392384 -0.669301
v 0.043191 0.382566 -0.693166
v 0.031273 0.372749 -0.715693
v -0.019087 0.372749 -0.712463
v -0.028029 0.382566 -0.688597
v -0.016111 0.392384 -0.666071
v 0.009685 0.396450 -0.658077
v 0.005634 0.369325 -0.721236
v 0.017538 0.417318 -0.678504
v 0.020762 0.414511 -0.687431
v 0.016424 0.411703 -0.695873
v -0.001827 0.411703 -0.694702
v -0.005049 0.414511 -0.685775
v -0.000713 0.417318 -0.677333
v 0.008643 0.418481 -0.674321
v 0.007126 0.410695 -0.697981
v 0.013198 0.424832 -0.681318
v 0.027588 0.403357 -0.119368
v 0.034589 0.386232 -0.123336
v 0.027138 0.369106 -0.126378
v -0.007754 0.369106 -0.124140
v -0.014757 0.386232 -0.120171
v -0.007305 0.403357 -0.117130
v 0.010234 0.410451 -0.116797
v 0.009636 0.363668 -0.126116
v 0.024615 0.389477 -0.085950
v 0.029232 0.379857 -0.094047
v 0.023618 0.370236 -0.101489
v -0.001084 0.370236 -0.099905
v -0.005701 0.379857 -0.091806
v -0.000087 0.389477 -0.084365
v 0.012470 0.393462 -0.081940
v 0.011119 0.367098 -0.103003
v 0.014943 0.424559 -0.686426
v 0.012560 0.424286 -0.691270
v 0.002594 0.424286 -0.690631
v 0.000849 0.424559 -0.685522
v 0.003232 0.424832 -0.680679
v 0.008347 0.424945 -0.678938
v 0.007476 0.424129 -0.692511
v 0.007646 0.438160 -0.689874
v 0.019875 0.382670 -0.080984
v 0.022356 0.376774 -0.085139
v 0.018629 0.371229 -0.090556
v 0.005682 0.370726 -0.090339
v 0.002821 0.375943 -0.085291
v 0.005982 0.382825 -0.080346
v 0.012706 0.384406 -0.079185
v 0.011882 0.368436 -0.091390
vn -0.5791 -0.3882 0.7169
vn 0.0261 -0.4703 0.8821
vn -0.5757 -0.4599 0.6761
vn 0.0580 -0.6416 0.7648
vn -0.9656 0.0704 0.2503
vn -0.9684 0.0017 0.2496
vn -0.0304 0.9514 -0.3064
vn -0.0182 0.8528 -0.5219
vn -0.7317 0.6686 -0.1330
vn -0.7585 0.5743 -0.3079
vn 0.7013 0.6879 -0.1867
vn 0.6989 0.6350 -0.3290
vn 0.6001 -0.4761 0.6428
vn 0.5766 -0.3415 0.7422
vn 0.9821 0.0779 0.1713
vn 0.9662 0.0780 0.2456
vn 0.0560 -0.7895 0.6112
vn -0.6003 -0.5541 0.5767
vn -0.9527 0.0655 0.2969
vn -0.6784 0.7320 0.0627
vn -0.0021 0.9981 -0.0612
vn 0.6830 0.7303 -0.0157
vn 0.6251 -0.5808 0.5214
vn 0.9766 0.0564 0.2075
vn 0.0460 -0.2892 0.9562
vn 0.6428 -0.1603 0.7491
vn -0.7330 0.5400 -0.4136
vn -0.9752 0.1174 0.1877
vn 0.9805 0.1729 0.0938
vn 0.6346 0.5882 -0.5012
vn -0.6191 -0.1929 0.7612
vn -0.0669 0.7415 -0.6676
vn -0.5721 -0.1462 0.8071
vn 0.0941 -0.3152 0.9443
vn -0.9717 0.2311 0.0488
vn -0.0028 0.6105 -0.7920
vn -0.6730 0.5071 -0.5385
vn 0.6859 0.4789 -0.5480
vn 0.7069 -0.1304 0.6951
vn 0.9755 0.2114 0.0606
vn -0.7166 0.4850 -0.5013
vn -0.9567 0.1203 0.2652
vn 0.9329 0.1830 0.3100
vn 0.7678 0.5344 -0.3534
vn 0.6404 -0.2181 0.7364
vn -0.4786 -0.2778 0.8329
vn 0.1412 -0.3685 0.9188
vn 0.0358 0.6129 -0.7893
vn 0.6691 0.7000 -0.2498
vn 0.0428 0.8736 -0.4848
vn 0.0556 -0.7386 0.6719
vn 0.6678 -0.5305 0.5222
vn -0.6653 0.6798 -0.3086
vn -0.9710 0.1788 0.1586
vn 0.9809 0.1476 0.1267
vn -0.6469 -0.5260 0.5521
vn -0.6513 -0.7528 0.0947
vn 0.0018 -0.9943 0.1067
vn -0.9983 -0.0523 0.0272
vn 0.0506 0.9986 0.0125
vn -0.6996 0.7143 -0.0177
vn 0.7530 0.6443 0.1340
vn 0.6071 -0.7883 0.1000
vn 0.9844 -0.1466 0.0977
vn 0.6329 -0.6607 -0.4036
vn 0.9980 0.0300 -0.0554
vn -0.6224 -0.6776 -0.3916
vn -0.0204 -0.8796 -0.4753
vn -0.9883 -0.0349 -0.1483
vn 0.0167 0.9169 0.3988
vn -0.6549 0.6874 0.3141
vn 0.6930 0.6476 0.3170
vn -0.0540 -0.5370 -0.8418
vn 0.5989 -0.3594 -0.7157
vn -0.6500 0.6404 0.4092
vn -0.9763 0.1425 -0.1631
vn 0.9768 0.1067 -0.1857
vn 0.6758 0.6300 0.3827
vn -0.6817 -0.3609 -0.6364
vn 0.0328 0.7799 0.6251
vn 0.0501 0.6016 0.7972
vn -0.6864 0.5632 0.4602
vn 0.6545 0.6054 0.4530
vn -0.0627 -0.2008 -0.9776
vn 0.5198 -0.0865 -0.8499
vn -0.9437 0.2650 -0.1982
vn 0.9208 0.2762 -0.2753
vn -0.6343 -0.0690 -0.7700
vn -0.6094 0.2076 -0.7652
vn -0.0635 0.1315 -0.9893
vn -0.9166 0.3778 -0.1309
vn 0.0589 0.4220 0.9047
vn -0.6658 0.4411 0.6017
vn 0.7216 0.4771 0.5017
vn 0.4772 0.2190 -0.8511
vn 0.8636 0.4284 -0.2658
vn 0.8278 0.5133 -0.2263
vn 0.7016 0.5001 0.5075
vn 0.4318 0.4629 -0.7741
vn -0.5378 0.4585 -0.7075
vn -0.0581 0.4205 -0.9054
vn -0.8474 0.5152 -0.1286
vn 0.0561 0.4749 0.8783
vn -0.6300 0.5048 0.5901
vn -0.0589 0.4497 -0.8912
vn 0.4449 0.4954 -0.7461
vn -0.6000 0.5858 0.5449
vn -0.8280 0.5522 -0.0974
vn 0.8122 0.5476 -0.2012
vn 0.6630 0.5781 0.4756
vn -0.5446 0.4977 -0.6751
vn 0.0478 0.5844 0.8101
vn -0.8799 0.4730 0.0452
vn -0.6706 0.3645 -0.6461
vn 0.5672 0.3852 -0.7279
vn 0.8624 0.5014 -0.0702
vn 0.6131 0.5812 0.5351
vn 0.0438 0.6019 0.7974
vn -0.5543 0.5640 0.6121
vn -0.0663 0.2950 -0.9532
vn -0.9550 0.0029 0.2966
vn -0.6657 0.6921 0.2790
vn 0.6876 0.6957 0.2078
vn 0.9808 0.0016 0.1949
vn 0.6606 -0.6983 0.2757
vn 0.0138 -0.9329 0.3599
vn -0.6299 -0.6875 0.3614
vn 0.0133 0.9665 0.2562
vn 0.8851 0.3049 -0.3516
vn 0.9311 -0.1789 0.3178
vn 0.5644 -0.7665 0.3064
vn 0.1126 -0.9554 0.2728
vn -0.5679 -0.7485 0.3425
vn -0.8875 -0.1935 0.4181
vn -0.6316 0.4541 0.6283
vn -0.0165 0.9797 -0.1999
vn -0.0157 0.9695 -0.2446
vn 0.5873 -0.7781 0.2228
vn 0.5449 -0.4755 0.6906
vn -0.3642 -0.5451 0.7552
vn -0.3603 -0.1552 0.9198
vn 0.8127 -0.2597 0.5217
vn 0.4541 -0.7663 0.4545
vn 0.0299 -0.7942 0.6070
vn -0.2434 -0.7498 0.6153
vt 0.000000 0.000000
s 1
f 12/1/1 16/1/2 4/1/3
f 16/1/2 8/1/4 4/1/3
f 5/1/5 13/1/6 4/1/3
f 13/1/6 12/1/1 4/1/3
f 7/1/7 15/1/8 6/1/9
f 15/1/8 14/1/10 6/1/9
f 1/1/11 9/1/12 7/1/7
f 9/1/12 15/1/8 7/1/7
f 8/1/4 16/1/2 3/1/13
f 16/1/2 11/1/14 3/1/13
f 6/1/9 14/1/10 5/1/5
f 14/1/10 13/1/6 5/1/5
f 2/1/15 10/1/16 1/1/11
f 10/1/16 9/1/12 1/1/11
f 3/1/13 11/1/14 2/1/15
f 11/1/14 10/1/16 2/1/15
f 24/1/17 20/1/18 8/1/4
f 20/1/18 4/1/3 8/1/4
f 4/1/3 20/1/18 5/1/5
f 20/1/18 21/1/19 5/1/5
f 6/1/9 22/1/20 7/1/7
f 22/1/20 23/1/21 7/1/7
f 7/1/7 23/1/21 1/1/11
f 23/1/21 17/1/22 1/1/11
f 3/1/13 19/1/23 8/1/4
f 19/1/23 24/1/17 8/1/4
f 5/1/5 21/1/19 6/1/9
f 21/1/19 22/1/20 6/1/9
f 1/1/11 17/1/22 2/1/15
f 17/1/22 18/1/24 2/1/15
f 2/1/15 18/1/24 3/1/13
f 18/1/24 19/1/23 3/1/13
f 16/1/2 32/1/25 11/1/14
f 32/1/25 27/1/26 11/1/14
f 14/1/10 30/1/27 13/1/6
f 30/1/27 29/1/28 13/1/6
f 10/1/16 26/1/29 9/1/12
f 26/1/29 25/1/30 9/1/12
f 11/1/14 27/1/26 10/1/16
f 27/1/26 26/1/29 10/1/16
f 28/1/31 32/1/25 12/1/1
f 32/1/25 16/1/2 12/1/1
f 13/1/6 29/1/28 12/1/1
f 29/1/28 28/1/31 12/1/1
f 15/1/8 31/1/32 14/1/10
f 31/1/32 30/1/27 14/1/10
f 9/1/12 25/1/30 15/1/8
f 25/1/30 31/1/32 15/1/8
f 36/1/33 40/1/34 28/1/31
f 40/1/34 32/1/25 28/1/31
f 29/1/28 37/1/35 28/1/31
f 37/1/35 36/1/33 28/1/31
f 31/1/32 39/1/36 30/1/27
f 39/1/36 38/1/37 30/1/27
f 25/1/30 33/1/38 31/1/32
f 33/1/38 39/1/36 31/1/32
f 32/1/25 40/1/34 27/1/26
f 40/1/34 35/1/39 27/1/26
f 30/1/27 38/1/37 29/1/28
f 38/1/37 37/1/35 29/1/28
f 26/1/29 34/1/40 25/1/30
f 34/1/40 33/1/38 25/1/30
f 27/1/26 35/1/39 26/1/29
f 35/1/39 34/1/40 26/1/29
f 38/1/37 46/1/41 37/1/35
f 46/1/41 45/1/42 37/1/35
f 34/1/40 42/1/43 33/1/38
f 42/1/43 41/1/44 33/1/38
f 35/1/39 43/1/45 34/1/40
f 43/1/45 42/1/43 34/1/40
f 44/1/46 48/1/47 36/1/33
f 48/1/47 40/1/34 36/1/33
f 37/1/35 45/1/42 36/1/33
f 45/1/42 44/1/46 36/1/33
f 39/1/36 47/1/48 38/1/37
f 47/1/48 46/1/41 38/1/37
f 33/1/38 41/1/44 39/1/36
f 41/1/44 47/1/48 39/1/36
f 40/1/34 48/1/47 35/1/39
f 48/1/47 43/1/45 35/1/39
f 41/1/44 49/1/49 47/1/48
f 49/1/49 55/1/50 47/1/48
f 48/1/47 56/1/51 43/1/45
f 56/1/51 51/1/52 43/1/45
f 46/1/41 54/1/53 45/1/42
f 54/1/53 53/1/54 45/1/42
f 42/1/43 50/1/55 41/1/44
f 50/1/55 49/1/49 41/1/44
f 43/1/45 51/1/52 42/1/43
f 51/1/52 50/1/55 42/1/43
f 52/1/56 56/1/51 44/1/46
f 56/1/51 48/1/47 44/1/46
f 45/1/42 53/1/54 44/1/46
f 53/1/54 52/1/56 44/1/46
f 47/1/48 55/1/50 46/1/41
f 55/1/50 54/1/53 46/1/41
f 60/1/57 64/1/58 52/1/56
f 64/1/58 56/1/51 52/1/56
f 53/1/54 61/1/59 52/1/56
f 61/1/59 60/1/57 52/1/56
f 55/1/50 63/1/60 54/1/53
f 63/1/60 62/1/61 54/1/53
f 49/1/49 57/1/62 55/1/50
f 57/1/62 63/1/60 55/1/50
f 56/1/51 64/1/58 51/1/52
f 64/1/58 59/1/63 51/1/52
f 54/1/53 62/1/61 53/1/54
f 62/1/61 61/1/59 53/1/54
f 50/1/55 58/1/64 49/1/49
f 58/1/64 57/1/62 49/1/49
f 51/1/52 59/1/63 50/1/55
f 59/1/63 58/1/64 50/1/55
f 59/1/63 67/1/65 58/1/64
f 67/1/65 66/1/66 58/1/64
f 68/1/67 72/1/68 60/1/57
f 72/1/68 64/1/58 60/1/57
f 61/1/59 69/1/69 60/1/57
f 69/1/69 68/1/67 60/1/57
f 63/1/60 71/1/70 62/1/61
f 71/1/70 70/1/71 62/1/61
f 57/1/62 65/1/72 63/1/60
f 65/1/72 71/1/70 63/1/60
f 64/1/58 72/1/68 59/1/63
f 72/1/68 67/1/65 59/1/63
f 62/1/61 70/1/71 61/1/59
f 70/1/71 69/1/69 61/1/59
f 58/1/64 66/1/66 57/1/62
f 66/1/66 65/1/72 57/1/62
f 72/1/68 80/1/73 67/1/65
f 80/1/73 75/1/74 67/1/65
f 70/1/71 78/1/75 69/1/69
f 78/1/75 77/1/76 69/1/69
f 66/1/66 74/1/77 65/1/72
f 74/1/77 73/1/78 65/1/72
f 67/1/65 75/1/74 66/1/66
f 75/1/74 74/1/77 66/1/66
f 76/1/79 80/1/73 68/1/67
f 80/1/73 72/1/68 68/1/67
f 69/1/69 77/1/76 68/1/67
f 77/1/76 76/1/79 68/1/67
f 71/1/70 79/1/80 70/1/71
f 79/1/80 78/1/75 70/1/71
f 65/1/72 73/1/78 71/1/70
f 73/1/78 79/1/80 71/1/70
f 79/1/80 87/1/81 78/1/75
f 87/1/81 86/1/82 78/1/75
f 73/1/78 81/1/83 79/1/80
f 81/1/83 87/1/81 79/1/80
f 80/1/73 88/1/84 75/1/74
f 88/1/84 83/1/85 75/1/74
f 78/1/75 86/1/82 77/1/76
f 86/1/82 85/1/86 77/1/76
f 74/1/77 82/1/87 73/1/78
f 82/1/87 81/1/83 73/1/78
f 75/1/74 83/1/85 74/1/77
f 83/1/85 82/1/87 74/1/77
f 84/1/88 88/1/84 76/1/79
f 88/1/84 80/1/73 76/1/79
f 77/1/76 85/1/86 76/1/79
f 85/1/86 84/1/88 76/1/79
f 92/1/89 96/1/90 84/1/88
f 96/1/90 88/1/84 84/1/88
f 85/1/86 93/1/91 84/1/88
f 93/1/91 92/1/89 84/1/88
f 87/1/81 95/1/92 86/1/82
f 95/1/92 94/1/93 86/1/82
f 81/1/83 89/1/94 87/1/81
f 89/1/94 95/1/92 87/1/81
f 88/1/84 96/1/90 83/1/85
f 96/1/90 91/1/95 83/1/85
f 86/1/82 94/1/93 85/1/86
f 94/1/93 93/1/91 85/1/86
f 82/1/87 90/1/96 81/1/83
f 90/1/96 89/1/94 81/1/83
f 83/1/85 91/1/95 82/1/87
f 91/1/95 90/1/96 82/1/87
f 90/1/96 98/1/97 89/1/94
f 98/1/97 97/1/98 89/1/94
f 91/1/95 99/1/99 90/1/96
f 99/1/99 98/1/97 90/1/96
f 100/1/100 104/1/101 92/1/89
f 104/1/101 96/1/90 92/1/89
f 93/1/91 101/1/102 92/1/89
f 101/1/102 100/1/100 92/1/89
f 95/1/92 103/1/103 94/1/93
f 103/1/103 102/1/104 94/1/93
f 89/1/94 97/1/98 95/1/92
f 97/1/98 103/1/103 95/1/92
f 96/1/90 104/1/101 91/1/95
f 104/1/101 99/1/99 91/1/95
f 94/1/93 102/1/104 93/1/91
f 102/1/104 101/1/102 93/1/91
f 104/1/101 112/1/105 99/1/99
f 112/1/105 107/1/106 99/1/99
f 102/1/104 110/1/107 101/1/102
f 110/1/107 109/1/108 101/1/102
f 98/1/97 106/1/109 97/1/98
f 106/1/109 105/1/110 97/1/98
f 99/1/99 107/1/106 98/1/97
f 107/1/106 106/1/109 98/1/97
f 108/1/111 112/1/105 100/1/100
f 112/1/105 104/1/101 100/1/100
f 101/1/102 109/1/108 100/1/100
f 109/1/108 108/1/111 100/1/100
f 103/1/103 111/1/112 102/1/104
f 111/1/112 110/1/107 102/1/104
f 97/1/98 105/1/110 103/1/103
f 105/1/110 111/1/112 103/1/103
f 109/1/108 133/1/113 108/1/111
f 133/1/113 132/1/114 108/1/111
f 107/1/106 131/1/115 106/1/109
f 131/1/115 130/1/116 106/1/109
f 105/1/110 113/1/117 111/1/112
f 113/1/117 135/1/118 111/1/112
f 106/1/109 130/1/116 105/1/110
f 130/1/116 113/1/117 105/1/110
f 111/1/112 135/1/118 110/1/107
f 135/1/118 134/1/119 110/1/107
f 112/1/105 136/1/120 107/1/106
f 136/1/120 131/1/115 107/1/106
f 110/1/107 134/1/119 109/1/108
f 134/1/119 133/1/113 109/1/108
f 108/1/111 132/1/114 112/1/105
f 132/1/114 136/1/120 112/1/105
f 21/1/19 118/1/121 22/1/20
f 118/1/121 119/1/122 22/1/20
f 17/1/22 114/1/123 18/1/24
f 114/1/123 115/1/124 18/1/24
f 18/1/24 115/1/124 19/1/23
f 115/1/124 116/1/125 19/1/23
f 121/1/126 117/1/127 24/1/17
f 117/1/127 20/1/18 24/1/17
f 20/1/18 117/1/127 21/1/19
f 117/1/127 118/1/121 21/1/19
f 22/1/20 119/1/122 23/1/21
f 119/1/122 120/1/128 23/1/21
f 23/1/21 120/1/128 17/1/22
f 120/1/128 114/1/123 17/1/22
f 19/1/23 116/1/125 24/1/17
f 116/1/125 121/1/126 24/1/17
f 114/1/123 122/1/129 115/1/124
f 122/1/129 123/1/130 115/1/124
f 115/1/124 123/1/130 116/1/125
f 123/1/130 124/1/131 116/1/125
f 121/1/126 129/1/132 117/1/127
f 129/1/132 125/1/133 117/1/127
f 117/1/127 125/1/133 118/1/121
f 125/1/133 126/1/134 118/1/121
f 119/1/122 127/1/135 120/1/128
f 127/1/135 128/1/136 120/1/128
f 120/1/128 128/1/136 114/1/123
f 128/1/136 122/1/129 114/1/123
f 116/1/125 124/1/131 121/1/126
f 124/1/131 129/1/132 121/1/126
f 118/1/121 126/1/134 119/1/122
f 126/1/134 127/1/135 119/1/122
f 132/1/114 137/1/137 136/1/120
f 130/1/116 137/1/137 113/1/117
f 135/1/118 137/1/137 134/1/119
f 136/1/120 137/1/137 131/1/115
f 131/1/115 137/1/137 130/1/116
f 133/1/113 137/1/137 132/1/114
f 134/1/119 137/1/137 133/1/113
f 113/1/117 137/1/137 135/1/118
f 123/1/130 122/1/129 138/1/138 139/1/139
f 127/1/135 126/1/134 142/1/140 143/1/141
f 122/1/129 128/1/136 144/1/142 138/1/138
f 129/1/132 124/1/131 140/1/143 145/1/144
f 125/1/133 129/1/132 145/1/144 141/1/145
f 128/1/136 127/1/135 143/1/141 144/1/142
f 124/1/131 123/1/130 139/1/139 140/1/143
f 126/1/134 125/1/133 141/1/145 142/1/140
f 138/1/138 144/1/142 143/1/141 142/1/140 141/1/145 145/1/144 140/1/143 139/1/139
